<?xml version="1.0" standalone="no"?>
<!DOCTYPE svg PUBLIC "-//W3C//DTD SVG 20010904//EN"
 "http://www.w3.org/TR/2001/REC-SVG-20010904/DTD/svg10.dtd">
<svg version="1.0" xmlns="http://www.w3.org/2000/svg"
 width="199.000000pt" height="199.000000pt" viewBox="0 0 199.000000 199.000000"
 preserveAspectRatio="xMidYMid meet">
<metadata>
Created by potrace 1.11, written by Peter Selinger 2001-2013
</metadata>
<g transform="translate(0.000000,199.000000) scale(0.100000,-0.100000)"
fill="#000000" stroke="none">
<path d="M840 1826 c-151 -35 -277 -100 -394 -203 -20 -18 -36 -35 -36 -38 0
-3 32 -5 71 -5 62 0 75 4 115 31 60 41 175 93 244 110 77 19 259 17 338 -5 86
-23 165 -59 224 -101 47 -35 52 -36 126 -33 l76 3 -76 61 c-100 81 -164 116
-278 155 -84 28 -111 32 -225 35 -83 2 -150 -1 -185 -10z"/>
<path d="M718 1338 l-115 -103 194 -5 195 -5 -205 -185 -206 -185 0 -152 -1
-153 390 0 390 0 0 105 0 105 -257 2 -257 3 364 329 c201 181 369 333 374 338
6 4 -161 8 -370 8 l-380 0 -116 -102z"/>
<path d="M430 385 c27 -32 151 -116 221 -150 121 -57 216 -78 354 -78 188 1
341 51 485 161 105 79 106 82 17 82 -68 0 -81 -3 -121 -31 -222 -149 -566
-144 -788 12 -35 25 -189 29 -168 4z"/>
</g>
</svg>
